<svg xmlns="http://www.w3.org/2000/svg" viewBox="0 0 800 600" width="800" height="600"><rect width="800" height="600" fill="#EFEAE0"/><rect x="0" y="330" width="800" height="270" fill="#D6CDBB"/><rect x="40" y="300" width="720" height="40" rx="6" fill="#B9AE98"/><rect x="60" y="340" width="220" height="200" fill="#F7F4EE" stroke="#BDB4A4" stroke-width="4"/><rect x="290" y="340" width="220" height="200" fill="#F7F4EE" stroke="#BDB4A4" stroke-width="4"/><rect x="520" y="340" width="220" height="200" fill="#F7F4EE" stroke="#BDB4A4" stroke-width="4"/><path d="M160 430h20M390 430h20M620 430h20" stroke="#9AA3A8" stroke-width="8" stroke-linecap="round"/><rect x="80" y="70" width="260" height="170" rx="10" fill="#DCE7EA" stroke="#BDB4A4" stroke-width="4"/><path d="M210 70v170M80 155h260" stroke="#BDB4A4" stroke-width="4"/><rect x="470" y="250" width="160" height="50" rx="8" fill="#C8CFD2"/><path d="M540 250v-60h40" fill="none" stroke="#9AA3A8" stroke-width="9" stroke-linecap="round"/><rect x="420" y="225" width="70" height="60" rx="6" fill="#A39C8E"/><rect x="440" y="210" width="80" height="18" rx="4" fill="#C2B9A6"/><circle cx="160" cy="300" r="22" fill="#FFFFFF" stroke="#BDB4A4" stroke-width="3"/><path d="M110 296c30 6 60-4 90 2" stroke="#9C7B5B" stroke-width="7" opacity=".55"/><circle cx="660" cy="305" r="12" fill="#B8A57E" opacity=".8"/><circle cx="300" cy="312" r="8" fill="#B8A57E" opacity=".8"/><g transform="translate(24 24)"><rect width="118" height="34" rx="17" fill="#1A1F24" fill-opacity=".72"/><text x="59" y="23" text-anchor="middle" font-family="Segoe UI,system-ui,sans-serif" font-size="16" font-weight="700" letter-spacing="2" fill="#FAF8F4">SAMPLE</text></g></svg>