<svg xmlns="http://www.w3.org/2000/svg" viewBox="0 0 800 600" width="800" height="600"><rect width="800" height="600" fill="#EFEAE0"/><rect x="0" y="330" width="800" height="270" fill="#D6CDBB"/><rect x="40" y="300" width="720" height="40" rx="6" fill="#B9AE98"/><rect x="60" y="340" width="220" height="200" fill="#F7F4EE" stroke="#BDB4A4" stroke-width="4"/><rect x="290" y="340" width="220" height="200" fill="#F7F4EE" stroke="#BDB4A4" stroke-width="4"/><rect x="520" y="340" width="220" height="200" fill="#F7F4EE" stroke="#BDB4A4" stroke-width="4"/><path d="M160 430h20M390 430h20M620 430h20" stroke="#9AA3A8" stroke-width="8" stroke-linecap="round"/><rect x="80" y="70" width="260" height="170" rx="10" fill="#DCE7EA" stroke="#BDB4A4" stroke-width="4"/><path d="M210 70v170M80 155h260" stroke="#BDB4A4" stroke-width="4"/><rect x="470" y="250" width="160" height="50" rx="8" fill="#C8CFD2"/><path d="M540 250v-60h40" fill="none" stroke="#9AA3A8" stroke-width="9" stroke-linecap="round"/><rect x="660" y="230" width="44" height="70" rx="8" fill="#1F6B4A" fill-opacity=".8"/><path d="M60 318h300" stroke="#FFFFFF" stroke-width="5" opacity=".6" stroke-linecap="round"/><g transform="translate(24 24)"><rect width="118" height="34" rx="17" fill="#1A1F24" fill-opacity=".72"/><text x="59" y="23" text-anchor="middle" font-family="Segoe UI,system-ui,sans-serif" font-size="16" font-weight="700" letter-spacing="2" fill="#FAF8F4">SAMPLE</text></g></svg>